<?xml version="1.0" standalone="no"?><!DOCTYPE svg PUBLIC "-//W3C//DTD SVG 1.1//EN" "http://www.w3.org/Graphics/SVG/1.1/DTD/svg11.dtd"><svg t="1774090183198" class="icon" viewBox="0 0 1024 1024" version="1.1" xmlns="http://www.w3.org/2000/svg" p-id="6952" xmlns:xlink="http://www.w3.org/1999/xlink" width="500" height="500"><path d="M497.536015 3.307997L38.99848 224.671772a16.631983 16.631983 0 0 0-9.40199 14.979985v544.695446a16.635983 16.635983 0 0 0 9.40199 14.979985l458.537535 221.363775a33.265966 33.265966 0 0 0 28.92797 0l458.537535-221.363775a16.631983 16.631983 0 0 0 9.40199-14.979985V239.651757a16.635983 16.635983 0 0 0-9.40199-14.979985L526.463985 3.307997a33.279966 33.279966 0 0 0-28.92797 0z" fill="#13a4f0" p-id="6953"></path><path d="M32.362487 230.545766a16.571983 16.571983 0 0 0-2.765997 9.105991v544.695446a16.635983 16.635983 0 0 0 9.40199 14.979985l458.537535 221.361775a33.247966 33.247966 0 0 0 14.463985 3.307997V462.095531L32.362487 230.545766z" fill="#69b2d8" p-id="6954"></path><path d="M991.637513 230.545766a16.571983 16.571983 0 0 1 2.765997 9.105991v544.695446a16.635983 16.635983 0 0 1-9.40199 14.979985L526.463985 1020.688963A33.249966 33.249966 0 0 1 512 1023.99896V462.095531l479.637513-231.549765z" fill="#4e6ef2" p-id="6955"></path><path d="M166.814351 755.313233a16.595983 16.595983 0 0 1-7.211993-1.655998L88.80843 719.479269a16.619983 16.619983 0 0 1-7.747992-22.205977c3.979996-8.267992 13.953986-11.711988 22.205977-7.747992l70.793928 34.179965a16.619983 16.619983 0 0 1 7.747992 22.205977c-2.857997 5.941994-8.803991 9.40199-14.993984 9.401991z" fill="#FFE17D" p-id="6956"></path><path d="M231.972284 712.899276a16.595983 16.595983 0 0 1-7.211992-1.655998l-135.855862-65.579934c-8.267992-3.995996-11.743988-13.937986-7.747992-22.205977 3.979996-8.251992 13.969986-11.711988 22.205977-7.747992l135.853862 65.579933c8.267992 3.995996 11.743988 13.937986 7.747992 22.205978-2.855997 5.941994-8.801991 9.40399-14.991985 9.40399z" fill="#FFF6D8" p-id="6957"></path><path d="M829.097678 308.745686L347.774167 76.219923l-126.879871 61.499937 482.40351 232.885764z" fill="#f08750" p-id="6958"></path><path d="M703.297806 370.605624v180.413816c0 6.131994 6.409993 10.15599 11.933988 7.489993l104.463893-50.429949a16.631983 16.631983 0 0 0 9.401991-14.979985v-184.351813l-125.799872 61.857938z" fill="#c65d16" p-id="6959"></path></svg>