<?xml version="1.0" standalone="no"?><!DOCTYPE svg PUBLIC "-//W3C//DTD SVG 1.1//EN" "http://www.w3.org/Graphics/SVG/1.1/DTD/svg11.dtd"><svg t="1773833222728" class="icon" viewBox="0 0 1024 1024" version="1.1" xmlns="http://www.w3.org/2000/svg" p-id="7610" width="500" height="500" xmlns:xlink="http://www.w3.org/1999/xlink"><path d="M743.131429 754.834286l-0.345235 63.125211L672.914286 860.16v-63.125211z" fill="#BB884F" p-id="7611"></path><path d="M672.914286 797.666743V860.16l-105.325715-60.386743 0.351086-62.493257z" fill="#E0B477" p-id="7612"></path><path d="M743.131429 755.115154L671.650377 795.794286 567.588571 736.999131 638.718537 696.32z" fill="#EFCD90" p-id="7613"></path><path d="M611.345554 708.022857L596.845714 716.624457 699.374446 778.24l14.49984-8.952686z" fill="#F7ECEA" p-id="7614"></path><path d="M696.32 781.124754l17.554286-8.736183v15.020618L696.32 795.794286z" fill="#C2AB9D" p-id="7615"></path><path d="M737.28 811.768686v1.357531L725.577143 819.2v-1.345829l11.702857-6.085485z m-2.194286 0.339383l-1.462857 0.678765v-7.431314l-1.100068 0.678766 1.831497-4.388572 2.194285 2.363977-1.462857 0.672915v7.431314z m-5.851428 3.042742l-1.462857 0.672915v-7.431315l-1.100069 0.678766 1.831497-4.049188 2.194286 2.024594-1.462857 0.672914v7.431314z" fill="#5C4123" p-id="7616"></path><path d="M717.320777 823.54176v-10.07616c0-1.948526 1.878309-4.54656 4.142812-5.523749l11.6736-5.851428c2.258651-0.971337 4.142811-0.321829 4.142811 1.626697v10.07616c0 1.948526-1.88416 4.54656-4.142811 5.523749l-11.6736 5.851428c-2.264503 0.971337-4.142811 0.321829-4.142812-1.626697z m4.142812-14.9504c-1.88416 0.977189-3.393829 2.925714-3.393829 4.552411v10.070309c0 1.626697 1.509669 1.948526 3.393829 1.299017l11.6736-5.851428c1.88416-0.971337 3.393829-2.919863 3.393828-4.54656v-10.070309c0-1.626697-1.509669-1.948526-3.393828-1.299017l-11.6736 5.851428z m-24.86272 19.49696c0-0.321829 1.129326-0.971337 2.633142-1.620846 1.509669-0.649509 2.638994-0.977189 2.638995-0.649508 0-0.32768 0.760686-0.977189 1.88416-1.626697v6.173257c0 0.649509 0.754834 0.649509 1.88416 0.32768 1.129326-0.32768 1.88416-1.626697 1.88416-2.282057 0-0.321829 0-0.321829-0.374492-0.321829-0.380343 0-0.380343 0.32768-0.380343 0.649509 0 0.32768-0.374491 0.977189-1.129325 1.299017-1.129326 0.65536-0.754834-0.643657-0.754835-0.643657v-5.851429c1.129326-0.649509 1.88416-0.649509 1.88416-0.649509 0-0.32768 1.129326-0.977189 2.633143-1.626697 1.509669-0.649509 2.638994-0.977189 2.638995-0.649508 0-2.598034-3.387977-3.569371-7.156298-1.948526 0-0.32768-0.374491-0.32768-0.374491 0-0.374491 0-0.754834 0.321829-0.754834 0.643657-4.142811 2.282057-7.156297 6.179109-7.156297 8.777143-0.374491 0-0.374491 0 0 0z" fill="#5C4123" p-id="7617"></path><path d="M700.345783 838.685257v-11.661897c0-2.2528 1.825646-5.266286 4.019931-6.38976l11.340069-6.764251c2.188434-1.129326 4.019931-0.380343 4.019931 1.872457v11.661897c0 2.2528-1.831497 5.266286-4.025783 6.38976l-11.334217 6.770103c-2.194286 1.123474-4.025783 0.374491-4.025783-1.88416z m4.019931-17.671314c-1.831497 1.123474-3.294354 3.382126-3.294354 5.260434v11.656046c0 1.878309 1.462857 2.2528 3.294354 1.503817l11.340069-6.770103c1.825646-1.123474 3.288503-3.382126 3.288503-5.266286v-11.650194c0-1.878309-1.462857-2.258651-3.294355-1.503817l-11.334217 6.764251zM684.617143 839.053897c0 1.872457 1.100069 2.633143 2.925714 1.872457v5.646629l-1.831497 1.123474V848.457143l4.388571-2.633143v-0.748983l-1.825645 1.123474v-5.634925c1.462857-1.129326 2.562926-3.387977 2.925714-5.266286v-4.13696l-5.851429 3.762469v4.13696H684.617143z" fill="#5C4123" p-id="7618"></path><path d="M678.765714 846.432549v-9.836252c0-1.907566 1.655954-4.447086 3.64544-5.395017l10.263406-5.710994c1.989486-0.953783 3.64544-0.315977 3.64544 1.579885v9.842103c0 1.907566-1.655954 4.447086-3.64544 5.395017l-10.263406 5.710995c-1.989486 0.953783-3.64544 0.315977-3.64544-1.579886z m3.64544-14.599315c-1.655954 0.953783-2.984229 2.855497-2.984228 4.447086v9.8304c0 1.591589 1.328274 1.907566 2.984228 1.275611l10.263406-5.710994c1.655954-0.953783 2.984229-2.855497 2.984229-4.447086v-9.8304c0-1.591589-1.328274-1.907566-2.984229-1.275611l-10.263406 5.710994z" fill="#5C4123" p-id="7619"></path><path d="M643.657143 813.348571v63.335863L573.44 918.674286l0.345234-63.335863z" fill="#BB884F" p-id="7620"></path><path d="M573.44 856.181029L573.088914 918.674286 468.114286 858.638629V795.794286z" fill="#E0B477" p-id="7621"></path><path d="M643.657143 813.83424L572.527177 854.308571 468.114286 795.308617 539.595337 754.834286z" fill="#EFCD90" p-id="7622"></path><path d="M517.722697 772.388571L503.222857 781.341257 605.751589 842.605714l14.49984-8.6016z" fill="#F7ECEA" p-id="7623"></path><path d="M602.697143 839.287954l17.554286-8.385097v14.669532L602.697143 854.308571z" fill="#C2AB9D" p-id="7624"></path><path d="M637.805714 876.1344v1.357531L626.102857 883.565714v-1.345828l11.702857-6.085486z m-2.194285 0.339383l-1.462858 0.678766v-7.764846l-1.100068 0.672914 1.831497-4.049188 1.831497 2.024594-1.100068 0.678766v7.758994z m-5.851429 3.042743l-1.462857 0.672914v-7.431314l-1.100069 0.678765 1.831497-4.388571 1.831498 2.024594-1.100069 1.012297v7.431315z" fill="#5C4123" p-id="7625"></path><path d="M626.102857 881.54112v-9.836251c0-1.907566 1.655954-4.447086 3.64544-5.395018l10.263406-5.710994c1.989486-0.953783 3.64544-0.315977 3.64544 1.579886v9.842103c0 1.907566-1.655954 4.447086-3.64544 5.395017l-10.263406 5.710994c-1.989486 0.953783-3.64544 0.315977-3.64544-1.579886z m3.64544-14.915291c-1.655954 0.953783-2.984229 2.855497-2.984228 4.447085v9.8304c0 1.591589 1.328274 1.907566 2.984228 1.275612l10.263406-5.716846c1.655954-0.947931 2.984229-2.855497 2.984228-4.441234v-9.836252c0-1.585737-1.328274-1.901714-2.984228-1.26976l-10.263406 5.710995zM608.548571 886.889326s0.292571 0 0 0c0-0.292571 0.877714-0.877714 2.048-1.462857 1.170286-0.579291 2.048-0.871863 2.048-0.579292 0-0.292571 0.585143-0.877714 1.462858-1.462857v5.547154c0 0.585143 0.585143 0.585143 1.462857 0.292572s1.462857-1.462857 1.462857-2.042149c0-0.292571 0-0.292571-0.292572-0.292571s-0.292571 0.292571-0.292571 0.585143-0.292571 0.877714-0.877714 1.170285c-0.877714 0.585143-0.877714-0.585143-0.877715-0.585143v-5.254582c0.877714-0.585143 1.462857-0.585143 1.462858-0.585143 0-0.292571 0.877714-0.877714 2.048-1.462857 1.170286-0.579291 2.048-0.871863 2.048-0.579292 0-2.33472-2.633143-3.206583-5.558858-1.755428 0-0.28672-0.292571-0.28672-0.292571 0-0.292571 0-0.292571 0.292571-0.292571 0.585142-2.925714 1.755429-5.558857 5.547154-5.558858 7.881875z" fill="#5C4123" p-id="7626"></path><path d="M602.697143 893.243977v-9.836251c0-1.907566 1.655954-4.447086 3.64544-5.395017l10.263406-5.710995c1.989486-0.953783 3.64544-0.315977 3.64544 1.579886v9.842103c0 1.907566-1.655954 4.447086-3.64544 5.395017l-10.263406 5.710994c-1.989486 0.953783-3.64544 0.315977-3.64544-1.579885z m3.64544-14.599314c-1.655954 0.953783-2.984229 2.855497-2.984229 4.447086v9.8304c0 1.591589 1.328274 1.907566 2.984229 1.275611l10.263406-5.710994c1.655954-0.953783 2.984229-2.855497 2.984228-4.447086v-9.8304c0-1.591589-1.328274-1.907566-2.984228-1.275611l-10.263406 5.710994zM585.142857 897.4336c0 1.907566 0.977189 2.668251 2.598034 1.907566v5.722697l-1.620845 1.14688v0.760686l3.897051-2.674103v-0.760686l-1.620846 1.14688v-5.728549c1.299017-1.141029 2.270354-3.434789 2.598035-5.342354V889.417143l-5.523749 3.815131v4.201326H585.142857z" fill="#5C4123" p-id="7627"></path><path d="M579.291429 904.946834v-9.836251c0-1.907566 1.655954-4.447086 3.64544-5.395017l10.263405-5.710995c1.989486-0.953783 3.64544-0.315977 3.64544 1.579886v9.842103c0 1.907566-1.655954 4.447086-3.64544 5.395017l-10.263405 5.710994c-1.989486 0.953783-3.64544 0.315977-3.64544-1.579885z m3.64544-14.915291c-1.655954 0.953783-2.984229 2.855497-2.984229 4.447086v9.8304c0 1.591589 1.328274 1.907566 2.984229 1.275611l10.263405-5.716846c1.655954-0.947931 2.984229-2.855497 2.984229-4.441234v-9.836251c0-1.585737-1.328274-1.901714-2.984229-1.26976l-10.263405 5.710994z" fill="#5C4123" p-id="7628"></path><path d="M690.468571 719.725714l-0.345234 63.125212L620.251429 825.051429l0.345234-63.125212z" fill="#A67946" p-id="7629"></path><path d="M620.251429 762.558171l-0.351086 62.493258L514.925714 764.664686l0.351086-62.493257z" fill="#E0B477" p-id="7630"></path><path d="M690.468571 720.006583L618.98752 760.685714 514.925714 701.89056 586.05568 661.211429z" fill="#EFCD90" p-id="7631"></path><path d="M558.682697 672.914286L544.182857 681.515886 646.711589 743.131429l14.49984-8.952686z" fill="#F7ECEA" p-id="7632"></path><path d="M649.508571 740.164754l17.554286-8.736183v15.020618L649.508571 754.834286z" fill="#C2AB9D" p-id="7633"></path><path d="M684.617143 776.472869v1.328274L672.914286 784.091429v-1.655955l11.702857-5.962605z m-2.194286 0.333531l-1.462857 0.661211v-7.285028l-1.100069 0.661211 1.831498-4.306651 1.831497 2.317166-1.100069 0.661211v7.29088z m-5.851428 2.984229l-1.462858 0.65536v-7.285029l-1.100068 0.661211 1.831497-3.97312 1.831497 1.989486-1.100068 0.661212v7.285028z" fill="#5C4123" p-id="7634"></path><path d="M667.062857 782.066834v-9.836251c0-1.907566 1.655954-4.447086 3.64544-5.395017l10.263406-5.710995c1.989486-0.953783 3.64544-0.315977 3.64544 1.579886v9.842103c0 1.907566-1.655954 4.447086-3.64544 5.395017l-10.263406 5.710994c-2.323017 0.953783-3.64544 0.315977-3.64544-1.579885z m3.311909-14.599314c-1.655954 0.953783-2.984229 2.855497-2.984229 4.447086v9.8304c0 1.591589 1.328274 1.907566 2.984229 1.275611l10.269257-5.710994c1.655954-0.953783 2.984229-2.855497 2.984228-4.447086v-9.8304c0-1.591589-1.328274-1.907566-2.984228-1.275611l-10.269257 5.710994zM649.508571 787.41504c0.28672 0 0.28672 0 0 0 0-0.292571 0.854309-0.877714 1.995338-1.462857 1.14688-0.579291 2.001189-0.871863 2.001188-0.579292 0-0.292571 0.567589-0.877714 1.427749-1.462857v5.547155c0 0.585143 0.567589 0.585143 1.427748 0.292571 0.854309-0.292571 1.427749-1.462857 1.427749-2.042149 0-0.292571 0-0.292571-0.292572-0.292571-0.280869 0-0.280869 0.292571-0.280868 0.585143s-0.28672 0.877714-0.854309 1.170286c-0.86016 0.585143-0.57344-0.585143-0.57344-0.585143v-5.254583c0.86016-0.585143 1.427749-0.585143 1.427749-0.585143 0-0.292571 0.854309-0.877714 2.001188-1.462857 1.141029-0.579291 1.995337-0.871863 1.995338-0.579292 0-2.33472-2.568777-3.206583-5.424275-1.755428 0-0.28672-0.28672-0.28672-0.28672 0-0.280869 0-0.280869 0.292571-0.280868 0.585143-3.142217 2.048-5.424274 5.547154-5.710995 7.881874z" fill="#5C4123" p-id="7635"></path><path d="M649.508571 799.62112v-9.836251c0-1.907566 1.655954-4.447086 3.64544-5.395018l10.263406-5.710994c1.989486-0.953783 3.64544-0.315977 3.64544 1.579886v9.842103c0 1.907566-1.655954 4.447086-3.64544 5.395017l-10.263406 5.710994c-1.989486 0.953783-3.64544 0.315977-3.64544-1.579886z m3.64544-14.915291c-1.655954 0.953783-2.984229 2.855497-2.984228 4.447085v9.8304c0 1.591589 1.328274 1.907566 2.984228 1.275612l10.263406-5.716846c1.655954-0.947931 2.984229-2.855497 2.984229-4.441234v-9.836252c0-1.585737-1.328274-1.901714-2.984229-1.26976l-10.263406 5.710995zM631.954286 797.959314c0 1.907566 0.977189 2.668251 2.598034 1.907566v5.722697l-1.620846 1.14688v0.760686l3.897052-2.674103v-0.760686l-1.620846 1.14688v-5.728548c1.299017-1.141029 2.270354-3.434789 2.598034-5.342355V789.942857l-5.20192 3.815132v4.201325H631.954286z" fill="#5C4123" p-id="7636"></path><path d="M626.102857 811.323977v-9.836251c0-1.907566 1.655954-4.447086 3.64544-5.395017l10.263406-5.710995c1.989486-0.953783 3.64544-0.315977 3.64544 1.579886v9.842103c0 1.907566-1.655954 4.447086-3.64544 5.395017l-10.263406 5.710994c-2.323017 0.953783-3.64544 0.315977-3.64544-1.579885z m3.311909-14.599314c-1.655954 0.953783-2.984229 2.855497-2.984229 4.447086v9.8304c0 1.591589 1.328274 1.907566 2.984229 1.275611l10.269257-5.710994c1.655954-0.953783 2.984229-2.855497 2.984228-4.447086v-9.8304c0-1.591589-1.328274-1.907566-2.984228-1.275611l-10.269257 5.710994z" fill="#5C4123" p-id="7637"></path><path d="M503.222857 11.702857l503.222857 286.491794V731.428571L503.222857 444.936777z" fill="#16212E" p-id="7638"></path><path d="M678.765714 596.845714v63.335863L748.982857 702.171429l-0.345234-63.335863z" fill="#E0B477" p-id="7639"></path><path d="M748.982857 639.678171l0.351086 62.493258L854.308571 641.784686V579.291429z" fill="#BB884F" p-id="7640"></path><path d="M678.765714 597.331383L749.89568 637.805714 854.308571 578.80576 782.82752 538.331429z" fill="#EFCD90" p-id="7641"></path><path d="M810.247314 550.034286l14.804115 8.952685L722.475886 620.251429l-14.453029-8.6016z" fill="#F7ECEA" p-id="7642"></path><path d="M719.725714 622.785097L702.171429 614.4v14.669531l17.554285 8.736183z" fill="#C2AB9D" p-id="7643"></path><path d="M684.617143 653.446583v1.691063l11.702857 6.073783v-1.345829l-11.702857-6.419017z m2.562926 0.672914l1.094217 0.678766v-7.764846l1.462857 0.672914-2.194286-4.049188-1.831497 2.024594 1.462857 0.678766v7.758994z m5.482788 3.042743l1.462857 0.672914v-7.764845l1.462857 1.012297-2.194285-4.388572-1.831497 2.024595 1.100068 0.678765v7.764846z" fill="#5C4123" p-id="7644"></path><path d="M698.525989 666.4192l-10.263406-5.658331c-1.989486-0.94208-3.64544-3.458194-3.64544-5.348206v-9.74848c0-1.890011 1.655954-2.516114 3.64544-1.574034l10.263406 5.664182c1.989486 0.936229 3.64544 3.452343 3.64544 5.342355v9.754331c0 2.200137-1.655954 2.82624-3.64544 1.568183z m-10.263406-21.697097c-1.655954-0.947931-2.984229-0.315977-2.984229 1.258057v9.74848c0 1.574034 1.328274 3.458194 2.984229 4.400274l10.263406 5.664183c1.655954 0.94208 2.984229 0.315977 2.984228-1.258057v-9.74848c0-1.579886-1.328274-3.464046-2.984228-4.406126l-10.263406-5.658331zM719.725714 670.67904c0-0.292571-0.877714-0.877714-2.048-1.755429-1.170286-0.579291-2.048-0.871863-2.048-0.579291 0-0.292571-0.585143-0.877714-1.462857-1.462857v5.547154c0 0.585143-0.585143 0.585143-1.462857 0.292572s-1.462857-1.462857-1.462857-2.042149c0-0.292571 0-0.292571 0.292571-0.292571s0.292571 0.292571 0.292572 0.585142 0.292571 0.877714 0.877714 1.170286c0.877714 0.585143 0.877714-0.585143 0.877714-0.585143v-5.254583c-0.877714-0.585143-1.462857-0.585143-1.462857-0.585142 0-0.292571-0.877714-0.877714-2.048-1.462858-1.170286-0.579291-2.048-0.871863-2.048-0.579291 0-2.33472 2.633143-3.206583 5.558857-1.755429 0-0.28672 0.292571-0.28672 0.292572 0 0.292571 0 0.292571 0.292571 0.292571 0.585143 2.925714 2.048 5.558857 5.839726 5.558857 8.174446z" fill="#5C4123" p-id="7645"></path><path d="M716.080274 678.326857l-10.263405-5.710994c-1.989486-0.953783-3.64544-3.487451-3.64544-5.395017v-9.836252c0-1.901714 1.655954-2.53952 3.64544-1.585737l10.263405 5.710994c1.989486 0.953783 3.64544 3.487451 3.64544 5.395018v9.836251c0 1.901714-1.655954 2.53952-3.64544 1.585737z m-10.263405-21.896046c-1.655954-0.947931-2.984229-0.315977-2.984229 1.26976v9.836252c0 1.591589 1.328274 3.493303 2.984229 4.447086l10.263405 5.710994c1.655954 0.947931 2.984229 0.315977 2.984229-1.26976v-9.836252c0-1.591589-1.328274-3.493303-2.984229-4.447085l-10.263405-5.710995zM737.28 675.079314c0 1.907566-0.977189 2.668251-2.598034 1.907566v5.722697l1.620845 1.14688v0.760686l-3.897051-2.674103v-0.760686l1.620846 1.14688v-5.728548c-1.299017-1.141029-2.270354-3.434789-2.598035-5.342355V667.062857l5.523749 3.815132v4.201325H737.28z" fill="#5C4123" p-id="7646"></path><path d="M739.485989 689.824914l-10.263406-5.658331c-1.989486-1.258057-3.64544-3.458194-3.64544-5.348206v-9.74848c0-1.890011 1.655954-2.516114 3.64544-1.574034l10.263406 5.664183c1.989486 0.936229 3.64544 3.452343 3.64544 5.342354v9.754331c0 2.200137-1.655954 2.82624-3.64544 1.568183z m-10.263406-21.697097c-1.655954-0.947931-2.984229-0.315977-2.984229 1.258057v9.74848c0 1.574034 1.328274 3.458194 2.984229 4.400275l10.263406 5.664182c1.655954 0.94208 2.984229 0.315977 2.984228-1.258057v-9.74848c0-1.579886-1.328274-3.464046-2.984228-4.406125l-10.263406-5.658332z" fill="#5C4123" p-id="7647"></path><path d="M772.388571 655.36l0.345235 63.125211L842.605714 760.685714v-63.125211z" fill="#E0B477" p-id="7648"></path><path d="M842.605714 698.192457V760.685714l105.325715-60.386743-0.351086-62.493257z" fill="#BB884F" p-id="7649"></path><path d="M772.388571 655.500434L843.869623 696.32 947.931429 637.320046 876.450377 596.845714z" fill="#EFCD90" p-id="7650"></path><path d="M904.221257 614.4l14.453029 8.6016L816.098743 684.617143l-14.453029-8.952686z" fill="#F7ECEA" p-id="7651"></path><path d="M819.2 681.650469L801.645714 672.914286v15.020617l17.554286 8.385097z" fill="#C2AB9D" p-id="7652"></path><path d="M778.24 717.812297v1.345829l11.702857 6.419017v-1.685212l-11.702857-6.079634z m2.264503 0.339383l1.135177 0.672914v-7.431314l1.509669 0.678766-1.890012-4.049189-2.264503 2.024594 1.509669 0.678766v7.425463z m6.038674 3.036891l1.135177 0.672915v-7.425463l1.509669 0.678766-1.890012-4.05504-2.264502 2.024594 1.509668 0.678766v7.425462z" fill="#5C4123" p-id="7653"></path><path d="M792.148846 725.138286l-10.263406-5.710995c-1.989486-0.953783-3.64544-3.487451-3.64544-5.395017v-9.836251c0-1.901714 1.655954-2.53952 3.64544-1.585737l10.263406 5.710994c1.989486 0.953783 3.64544 3.487451 3.64544 5.395017v9.836252c0 1.901714-1.655954 2.53952-3.64544 1.585737z m-10.263406-21.896046c-1.655954-0.947931-2.984229-0.315977-2.984229 1.26976v9.836251c0 1.591589 1.328274 3.493303 2.984229 4.447086l10.263406 5.710994c1.655954 0.947931 2.984229 0.315977 2.984228-1.26976v-9.836251c0-1.591589-1.328274-3.493303-2.984228-4.447086l-10.263406-5.710994zM813.348571 728.900754c0-0.292571-0.877714-0.877714-2.048-1.462857-1.170286-0.579291-2.048-0.871863-2.048-0.579291 0-0.292571-0.585143-0.877714-1.462857-1.462857v5.547154c0 0.585143-0.585143 0.585143-1.462857 0.292571s-1.462857-1.462857-1.462857-2.042148c0-0.292571 0-0.292571 0.292571-0.292572s0.292571 0.292571 0.292572 0.585143 0.292571 0.877714 0.877714 1.170286c0.877714 0.585143 0.877714-0.585143 0.877714-0.585143v-5.254583c-0.877714-0.585143-1.462857-0.585143-1.462857-0.585143 0-0.292571-0.877714-0.877714-2.048-1.462857-1.170286-0.579291-2.048-0.871863-2.048-0.579291 0-2.33472 2.633143-3.206583 5.558857-1.755429 0-0.28672 0.292571-0.28672 0.292572 0 0.292571 0 0.292571 0.292571 0.292571 0.585143 3.218286 2.048 5.558857 5.547154 5.558857 7.881874 0 0.292571 0 0.292571 0 0z" fill="#5C4123" p-id="7654"></path><path d="M815.55456 736.636343l-10.263406-5.658332c-1.989486-0.94208-3.64544-3.458194-3.64544-5.348205v-9.74848c0-1.890011 1.655954-2.516114 3.64544-1.574035l10.263406 5.664183c1.989486 0.936229 3.64544 3.452343 3.64544 5.342355v9.754331c0 2.200137-1.655954 2.82624-3.64544 1.568183z m-10.596937-21.697097c-1.655954-0.947931-2.984229-0.315977-2.984229 1.258057v9.74848c0 1.574034 1.328274 3.458194 2.984229 4.400274l10.269257 5.664183c1.655954 0.94208 2.984229 0.315977 2.984229-1.258057v-9.74848c0-1.579886-1.328274-3.464046-2.984229-4.406126l-10.269257-5.658331zM830.902857 739.228526c0 1.954377-0.977189 2.732617-2.598034 1.954377v5.851428l1.620846 1.170286V748.982857l-3.897052-2.732617v-0.77824l1.620846 1.170286v-5.459383c-1.299017-1.170286-2.270354-3.510857-2.598034-5.465234V731.428571l5.20192 3.902903v3.897052H830.902857z" fill="#5C4123" p-id="7655"></path><path d="M833.108846 748.544l-10.263406-5.710994c-1.989486-0.953783-3.64544-3.487451-3.64544-5.395017v-9.836252c0-1.901714 1.655954-2.53952 3.64544-1.585737l10.263406 5.710994c1.989486 0.953783 3.64544 3.487451 3.64544 5.395017v9.836252c0 1.901714-1.655954 2.53952-3.64544 1.585737z m-10.263406-21.896046c-1.655954-0.947931-2.984229-0.315977-2.984229 1.26976v9.836252c0 1.591589 1.328274 3.493303 2.984229 4.447085l10.263406 5.710995c1.655954 0.947931 2.984229 0.315977 2.984228-1.26976v-9.836252c0-1.591589-1.328274-3.493303-2.984228-4.447085l-10.263406-5.710995z" fill="#5C4123" p-id="7656"></path><path d="M754.834286 573.44v63.335863L825.051429 678.765714l-0.345235-63.335863z" fill="#E0B477" p-id="7657"></path><path d="M825.051429 616.272457l0.351085 62.493257L930.377143 618.378971V555.885714z" fill="#BB884F" p-id="7658"></path><path d="M754.834286 573.925669L825.964251 614.4 930.377143 555.400046 858.896091 514.925714z" fill="#EFCD90" p-id="7659"></path><path d="M886.62016 526.628571L901.12 535.230171 798.591269 596.845714 784.091429 588.244114z" fill="#F7ECEA" p-id="7660"></path><path d="M801.645714 599.508114L784.091429 590.994286v14.891885l17.554285 8.513829z" fill="#C2AB9D" p-id="7661"></path><path d="M760.685714 630.040869v1.691062l11.702857 6.073783v-1.345828l-11.702857-6.419017z m2.194286 0.672914l1.462857 0.678766v-7.764846l1.462857 0.672914-2.194285-4.049188-1.831498 2.024594 1.100069 0.678766v7.758994z m5.851429 3.042743l1.462857 0.672914v-7.764846l1.462857 0.678766-2.194286-4.05504-1.831497 2.024594 1.100069 0.678766v7.764846z" fill="#5C4123" p-id="7662"></path><path d="M774.59456 643.013486l-10.263406-5.658332c-1.989486-0.94208-3.64544-3.458194-3.64544-5.348205v-9.74848c0-1.890011 1.655954-2.516114 3.64544-1.574035l10.263406 5.664183c1.989486 0.936229 3.64544 3.452343 3.64544 5.342354v9.754332c0 2.200137-1.655954 2.82624-3.64544 1.568183z m-10.263406-21.697097c-1.655954-0.947931-2.984229-0.315977-2.984228 1.258057v9.74848c0 1.574034 1.328274 3.458194 2.984228 4.400274l10.263406 5.664183c1.655954 0.94208 2.984229 0.315977 2.984229-1.258057v-9.74848c0-1.579886-1.328274-3.464046-2.984229-4.406126l-10.263406-5.658331zM795.794286 646.980754c0-0.292571-0.854309-0.877714-1.995337-1.462857-1.14688-0.579291-2.001189-0.871863-2.001189-0.579291 0-0.292571-0.567589-0.877714-1.427749-1.462857v5.547154c0 0.585143-0.567589 0.585143-1.427748 0.292571-0.854309-0.292571-1.427749-1.462857-1.427749-2.042148 0-0.292571 0-0.292571 0.292572-0.292572 0.280869 0 0.280869 0.292571 0.280868 0.585143s0.28672 0.877714 0.854309 1.170286c0.86016 0.585143 0.57344-0.585143 0.57344-0.585143v-5.254583c-0.86016-0.585143-1.427749-0.585143-1.427749-0.585143 0-0.292571-0.854309-0.877714-2.001188-1.462857-1.141029-0.579291-1.995337-0.871863-1.995337-0.579291 0-2.33472 2.568777-3.206583 5.424274-1.755429 0-0.28672 0.28672-0.28672 0.28672 0 0.280869 0 0.280869 0.292571 0.280868 0.585143 3.142217 1.755429 5.710994 5.547154 5.710995 7.881874z" fill="#5C4123" p-id="7663"></path><path d="M798.000274 654.938697l-10.263405-5.640777c-1.989486-0.936229-3.64544-3.446491-3.64544-5.3248v-10.023497c0-1.872457 1.655954-2.504411 3.64544-1.562332l10.263405 5.634926c1.989486 1.252206 3.64544 3.452343 3.64544 5.3248v9.713372c0 2.188434-1.655954 2.814537-3.64544 1.872457z m-10.263405-21.615177c-1.655954-0.936229-2.984229-0.310126-2.984229 1.252206v9.713371c0 1.562331 1.328274 3.446491 2.984229 4.388572l10.263405 5.634925c1.655954 0.936229 2.984229 0.310126 2.984229-1.252205v-9.713372c0-1.562331-1.328274-3.446491-2.984229-4.388571l-10.263405-5.634926zM813.348571 651.6736c0 1.907566-0.977189 2.668251-2.598034 1.907566v5.722697l1.620846 1.14688v0.760686l-3.897052-2.674103v-0.760686l1.620846 1.14688v-5.728549c-1.299017-1.141029-2.270354-3.434789-2.598034-5.342354V643.657143l5.20192 3.434788v4.581669H813.348571z" fill="#5C4123" p-id="7664"></path><path d="M815.55456 666.4192l-10.263406-5.658331c-1.989486-0.94208-3.64544-3.458194-3.64544-5.348206v-9.74848c0-1.890011 1.655954-2.516114 3.64544-1.574034l10.263406 5.664182c1.989486 0.936229 3.64544 3.452343 3.64544 5.342355v9.754331c0 2.200137-1.655954 2.82624-3.64544 1.568183z m-10.263406-21.697097c-1.655954-0.947931-2.984229-0.315977-2.984228 1.258057v9.74848c0 1.574034 1.328274 3.458194 2.984228 4.400274l10.263406 5.664183c1.655954 0.94208 2.984229 0.315977 2.984229-1.258057v-9.74848c0-1.579886-1.328274-3.464046-2.984229-4.406126l-10.263406-5.658331z" fill="#5C4123" p-id="7665"></path><path d="M1012.297143 734.968686V298.422857l-503.222857 289.031314V1024l43.914971-25.348389v-327.053897L979.716389 426.569143v327.053897" fill="#387A86" p-id="7666"></path><path d="M1012.297143 296.22272L509.074286 585.142857v-9.50272L1012.297143 286.72z" fill="#E0E0E0" p-id="7667"></path><path d="M11.702857 298.422857l503.222857 289.031314V1024L11.702857 734.968686z" fill="#5CB8CF" p-id="7668"></path><path d="M187.245714 509.536549V438.857143l58.514286 34.991543V544.182857z" fill="#FFFFFF" p-id="7669"></path><path d="M193.097143 505.52832L239.908571 532.48v-54.96832L193.097143 450.56z" fill="#0F2E42" p-id="7670"></path><path d="M111.177143 462.613943V392.045714l58.514286 34.757486V497.371429z" fill="#FFFFFF" p-id="7671"></path><path d="M117.028571 458.716891L163.84 485.668571v-54.96832L117.028571 403.748571z" fill="#0F2E42" p-id="7672"></path><path d="M35.108571 421.653943V351.085714l58.514286 34.757486V456.411429z" fill="#FFFFFF" p-id="7673"></path><path d="M40.96 417.756891L87.771429 444.708571v-54.96832L40.96 362.788571z" fill="#0F2E42" p-id="7674"></path><path d="M11.702857 296.22272L514.925714 585.142857v-9.50272L11.702857 286.72z" fill="#E0E0E0" p-id="7675"></path><path d="M512 573.44L11.702857 286.544457 512 0 1012.297143 286.544457z" fill="#FFFFFF" p-id="7676"></path><path d="M70.217143 286.72L514.925714 29.257143l444.708572 257.462857-444.708572 257.462857z" fill="#E0E0E0" p-id="7677"></path><path d="M64.365714 289.50528L99.603017 310.125714 509.074286 75.647269V35.108571z" fill="#C4C4C4" p-id="7678"></path><path d="M516.330057 35.108571l-1.404343 1.041555v40.38656l1.404343-0.702172L924.2624 310.125714 959.634286 289.5872z" fill="#999999" p-id="7679"></path><path d="M585.142857 520.777143l-11.351771-6.465829L573.44 438.857143l11.351771 6.465828z" fill="#FF7A4A" p-id="7680"></path><path d="M584.709851 444.708571L573.44 438.342217 895.701577 251.611429 906.971429 257.977783z" fill="#FF8E3D" p-id="7681"></path><path d="M906.971429 263.314286v73.259885L585.493943 520.777143 585.142857 447.517257z" fill="#FF5B1F" p-id="7682"></path></svg>