<?xml version="1.0" standalone="no"?><!DOCTYPE svg PUBLIC "-//W3C//DTD SVG 1.1//EN" "http://www.w3.org/Graphics/SVG/1.1/DTD/svg11.dtd"><svg t="1774093965186" class="icon" viewBox="0 0 1024 1024" version="1.1" xmlns="http://www.w3.org/2000/svg" p-id="8199" xmlns:xlink="http://www.w3.org/1999/xlink" width="500" height="500"><path d="M186.188064 247.390152h90.995982A234.123954 234.123954 0 0 0 508.050001 470.806108h1.396999a234.355954 234.355954 0 0 0 232.726955-234.122954A234.123954 234.123954 0 0 0 512.006 0.0002h-1.397v82.617984V0.0002a232.726955 232.726955 0 0 0-218.995957 153.13497H186.188064a46.544991 46.544991 0 0 0-46.545991 46.544991 47.941991 47.941991 0 0 0 46.545991 47.709991z m461.26491 0a139.635973 139.635973 0 0 1-139.635973 129.162974 138.239973 138.239973 0 0 1-98.443981-41.890991 141.032972 141.032972 0 0 1-39.795992-87.272983z m-74.006986 423.562917h-122.879976A149.409971 149.409971 0 0 0 302.550041 820.82904v53.294989A149.409971 149.409971 0 0 0 450.566012 1024h122.879976A149.409971 149.409971 0 0 0 721.459959 874.124029v-53.294989a149.409971 149.409971 0 0 0-148.013971-149.875971z" p-id="8200" fill="#1296db"></path><path d="M651.641973 506.182101H372.370027a280.901945 280.901945 0 0 0-279.272945 282.529945v93.091982A139.635973 139.635973 0 0 0 232.733055 1024a46.544991 46.544991 0 0 0 0-93.089982 46.544991 46.544991 0 0 1-46.544991-46.545991v-93.090982A186.181964 186.181964 0 0 1 372.370027 602.996082h279.271946a186.181964 186.181964 0 0 1 186.181963 188.276963v93.089982a46.544991 46.544991 0 0 1-46.544991 46.545991 46.544991 46.544991 0 0 0 0 93.090982 139.635973 139.635973 0 0 0 139.635973-141.264972v-93.090982a280.901945 280.901945 0 0 0-279.272945-283.461945z" p-id="8201" fill="#1296db"></path></svg>